{
  "accessors": [
    {
      "bufferView": 2,
      "componentType": 5126,
      "count": 626,
      "max": [
        0.0833280012011528,
        0.3640590012073517,
        0.3126380145549774
      ],
      "min": [
        -0.0833590030670166,
        -0.18210799992084503,
        -0.0004830000107176602
      ],
      "type": "VEC3"
    },
    {
      "bufferView": 2,
      "byteOffset": 7512,
      "componentType": 5126,
      "count": 626,
      "max": [
        0.999613344669342,
        0.997571587562561,
        0.9998039603233337
      ],
      "min": [
        -0.999613344669342,
        -0.997571587562561,
        -0.9997331500053406
      ],
      "type": "VEC3"
    },
    {
      "bufferView": 1,
      "componentType": 5126,
      "count": 626,
      "max": [
        0.9991850256919861,
        0.9990620017051697
      ],
      "min": [
        0.0022299999836832285,
        0.003329999977722764
      ],
      "type": "VEC2"
    },
    {
      "bufferView": 0,
      "componentType": 5125,
      "count": 2832,
      "type": "SCALAR"
    }
  ],
  "asset": {
    "extras": {
      "author": "Joanne🕷Chew (https://sketchfab.com/joan8ied)",
      "license": "CC-BY-NC-4.0 (http://creativecommons.org/licenses/by-nc/4.0/)",
      "source": "https://sketchfab.com/3d-models/eurasian-blue-tit-cyanistes-caeruleus-03277fc3ba3c4e669ed621696bd8ee6c",
      "title": "Eurasian blue tit - Cyanistes caeruleus"
    },
    "generator": "Sketchfab-12.65.0",
    "version": "2.0"
  },
  "bufferViews": [
    {
      "buffer": 0,
      "byteLength": 11328,
      "name": "floatBufferViews",
      "target": 34963
    },
    {
      "buffer": 0,
      "byteLength": 5008,
      "byteOffset": 11328,
      "byteStride": 8,
      "name": "floatBufferViews",
      "target": 34962
    },
    {
      "buffer": 0,
      "byteLength": 15024,
      "byteOffset": 16336,
      "byteStride": 12,
      "name": "floatBufferViews",
      "target": 34962
    }
  ],
  "buffers": [
    {
      "byteLength": 31360,
      "uri": "scene.bin"
    }
  ],
  "extensionsUsed": [
    "KHR_materials_unlit"
  ],
  "images": [
    {
      "uri": "textures/Material.001_baseColor.png"
    }
  ],
  "materials": [
    {
      "doubleSided": true,
      "extensions": {
        "KHR_materials_unlit": {}
      },
      "name": "Material.001",
      "pbrMetallicRoughness": {
        "baseColorTexture": {
          "index": 0
        },
        "metallicFactor": 0.0
      }
    }
  ],
  "meshes": [
    {
      "name": "Object_0",
      "primitives": [
        {
          "attributes": {
            "NORMAL": 1,
            "POSITION": 0,
            "TEXCOORD_0": 2
          },
          "indices": 3,
          "material": 0,
          "mode": 4
        }
      ]
    }
  ],
  "nodes": [
    {
      "children": [
        1
      ],
      "matrix": [
        1.0,
        0.0,
        0.0,
        0.0,
        0.0,
        2.220446049250313e-16,
        -1.0,
        0.0,
        0.0,
        1.0,
        2.220446049250313e-16,
        0.0,
        0.0,
        0.0,
        0.0,
        1.0
      ],
      "name": "Sketchfab_model"
    },
    {
      "children": [
        2
      ],
      "name": "df27015cbfad47008aabadbb67319cfe.obj.cleaner.materialmerger.gles"
    },
    {
      "mesh": 0,
      "name": "Object_2"
    }
  ],
  "samplers": [
    {
      "magFilter": 9729,
      "minFilter": 9987,
      "wrapS": 10497,
      "wrapT": 10497
    }
  ],
  "scene": 0,
  "scenes": [
    {
      "name": "Sketchfab_Scene",
      "nodes": [
        0
      ]
    }
  ],
  "textures": [
    {
      "sampler": 0,
      "source": 0
    }
  ]
}
