{
  "accessors": [
    {
      "bufferView": 3,
      "componentType": 5126,
      "count": 2939,
      "max": [
        0.7641679048538208,
        0.12731370329856873,
        0.4661526679992676
      ],
      "min": [
        -0.7641679048538208,
        -0.28813666105270386,
        -0.4587445855140686
      ],
      "type": "VEC3"
    },
    {
      "bufferView": 3,
      "byteOffset": 35268,
      "componentType": 5126,
      "count": 2939,
      "max": [
        0.9998757839202881,
        0.9995970129966736,
        0.9989542961120605
      ],
      "min": [
        -0.999061107635498,
        -0.9999991655349731,
        -0.9982933402061462
      ],
      "type": "VEC3"
    },
    {
      "bufferView": 2,
      "componentType": 5126,
      "count": 2939,
      "max": [
        0.997406005859375,
        0.9958040118217468
      ],
      "min": [
        0.0039980001747608185,
        0.004700005054473877
      ],
      "type": "VEC2"
    },
    {
      "bufferView": 2,
      "byteOffset": 23512,
      "componentType": 5126,
      "count": 2939,
      "max": [
        0.997406005859375,
        0.9958040118217468
      ],
      "min": [
        0.0039980001747608185,
        0.004700005054473877
      ],
      "type": "VEC2"
    },
    {
      "bufferView": 2,
      "byteOffset": 47024,
      "componentType": 5126,
      "count": 2939,
      "max": [
        1.0,
        0.0
      ],
      "min": [
        1.0,
        0.0
      ],
      "type": "VEC2"
    },
    {
      "bufferView": 2,
      "byteOffset": 70536,
      "componentType": 5126,
      "count": 2939,
      "max": [
        0.997406005859375,
        0.9958040118217468
      ],
      "min": [
        0.0039980001747608185,
        0.004700005054473877
      ],
      "type": "VEC2"
    },
    {
      "bufferView": 2,
      "byteOffset": 94048,
      "componentType": 5126,
      "count": 2939,
      "max": [
        0.997406005859375,
        0.9958040118217468
      ],
      "min": [
        0.0039980001747608185,
        0.004700005054473877
      ],
      "type": "VEC2"
    },
    {
      "bufferView": 3,
      "byteOffset": 70536,
      "componentType": 5126,
      "count": 2939,
      "max": [
        0.00774470716714859,
        0.11754585802555084,
        -9.834766387939453e-05
      ],
      "min": [
        -0.007507123053073883,
        -0.017385125160217285,
        -0.21328625082969666
      ],
      "type": "VEC3"
    },
    {
      "bufferView": 3,
      "byteOffset": 105804,
      "componentType": 5126,
      "count": 2939,
      "max": [
        0.45950523018836975,
        1.5664045810699463,
        1.0327019691467285
      ],
      "min": [
        -0.9626955986022949,
        -1.490093469619751,
        -1.2522902488708496
      ],
      "type": "VEC3"
    },
    {
      "bufferView": 3,
      "byteOffset": 141072,
      "componentType": 5126,
      "count": 2939,
      "max": [
        0.00806509330868721,
        0.01316852867603302,
        0.0006713569164276123
      ],
      "min": [
        -0.010165151208639145,
        -0.012997820973396301,
        -0.0006566941738128662
      ],
      "type": "VEC3"
    },
    {
      "bufferView": 3,
      "byteOffset": 176340,
      "componentType": 5126,
      "count": 2939,
      "max": [
        1.4236865043640137,
        0.8402736783027649,
        0.6832931637763977
      ],
      "min": [
        -1.4302678108215332,
        -1.0703891515731812,
        -1.069415807723999
      ],
      "type": "VEC3"
    },
    {
      "bufferView": 1,
      "componentType": 5125,
      "count": 13674,
      "type": "SCALAR"
    },
    {
      "bufferView": 5,
      "componentType": 5126,
      "count": 7,
      "max": [
        1.0,
        0.9699540734291077,
        0.2547639012336731,
        0.0,
        0.998016357421875,
        1.0,
        0.9999552369117737,
        0.0,
        0.9700092673301697,
        0.9853218197822571,
        1.0,
        0.0,
        0.17356142401695251,
        0.20696088671684265,
        0.036541275680065155,
        1.0
      ],
      "min": [
        -1.0,
        -0.9699539542198181,
        -0.2547646462917328,
        0.0,
        -0.9980164170265198,
        -0.4769170582294464,
        0.0,
        0.0,
        -0.9700093269348145,
        -0.24305911362171173,
        -0.9670042991638184,
        0.0,
        -0.1735611855983734,
        -0.2392139583826065,
        -0.20214606821537018,
        1.0
      ],
      "type": "MAT4"
    },
    {
      "bufferView": 0,
      "componentType": 5123,
      "count": 2939,
      "type": "VEC4"
    },
    {
      "bufferView": 4,
      "componentType": 5126,
      "count": 2939,
      "max": [
        1.0,
        0.49575722217559814,
        0.30724018812179565,
        0.0
      ],
      "min": [
        0.3833186626434326,
        0.0,
        0.0,
        0.0
      ],
      "type": "VEC4"
    },
    {
      "bufferView": 6,
      "componentType": 5126,
      "count": 51,
      "max": [
        2.125
      ],
      "min": [
        0.0416666679084301
      ],
      "type": "SCALAR"
    },
    {
      "bufferView": 7,
      "componentType": 5126,
      "count": 51,
      "max": [
        7.14883725549953e-08,
        0.04437272623181343,
        -0.19944970309734344
      ],
      "min": [
        -1.6322083240538632e-07,
        -0.06615452468395233,
        -0.21859882771968842
      ],
      "type": "VEC3"
    },
    {
      "bufferView": 6,
      "byteOffset": 204,
      "componentType": 5126,
      "count": 51,
      "max": [
        2.125
      ],
      "min": [
        0.0416666679084301
      ],
      "type": "SCALAR"
    },
    {
      "bufferView": 8,
      "componentType": 5126,
      "count": 51,
      "max": [
        0.5493367314338684,
        0.6759846806526184,
        -0.05209316685795784,
        0.8055934309959412
      ],
      "min": [
        0.1092533990740776,
        0.3211800754070282,
        -0.6211065649986267,
        0.42458730936050415
      ],
      "type": "VEC4"
    },
    {
      "bufferView": 6,
      "byteOffset": 408,
      "componentType": 5126,
      "count": 51,
      "max": [
        2.125
      ],
      "min": [
        0.0416666679084301
      ],
      "type": "SCALAR"
    },
    {
      "bufferView": 8,
      "byteOffset": 816,
      "componentType": 5126,
      "count": 51,
      "max": [
        0.1507103592157364,
        -0.6303583979606628,
        -0.20119817554950714,
        0.6962555646896362
      ],
      "min": [
        0.0024851621128618717,
        -0.689014732837677,
        -0.3433224856853485,
        0.6797532439231873
      ],
      "type": "VEC4"
    },
    {
      "bufferView": 6,
      "byteOffset": 612,
      "componentType": 5126,
      "count": 3,
      "max": [
        2.125
      ],
      "min": [
        0.0416666679084301
      ],
      "type": "SCALAR"
    },
    {
      "bufferView": 7,
      "byteOffset": 612,
      "componentType": 5126,
      "count": 3,
      "max": [
        0.9999998807907104,
        1.0000001192092896,
        0.9999999403953552
      ],
      "min": [
        0.9999998807907104,
        1.0,
        0.9999998807907104
      ],
      "type": "VEC3"
    },
    {
      "bufferView": 6,
      "byteOffset": 624,
      "componentType": 5126,
      "count": 51,
      "max": [
        2.125
      ],
      "min": [
        0.0416666679084301
      ],
      "type": "SCALAR"
    },
    {
      "bufferView": 8,
      "byteOffset": 1632,
      "componentType": 5126,
      "count": 51,
      "max": [
        -0.32814842462539673,
        -1.1337398291288991e-06,
        -2.5556792593306454e-07,
        0.9446261525154114
      ],
      "min": [
        -0.349357008934021,
        -1.1495989156173891e-06,
        -2.8980801403122314e-07,
        0.9369897246360779
      ],
      "type": "VEC4"
    },
    {
      "bufferView": 6,
      "byteOffset": 828,
      "componentType": 5126,
      "count": 51,
      "max": [
        2.125
      ],
      "min": [
        0.0416666679084301
      ],
      "type": "SCALAR"
    },
    {
      "bufferView": 8,
      "byteOffset": 2448,
      "componentType": 5126,
      "count": 51,
      "max": [
        0.549411416053772,
        -0.32108086347579956,
        0.6210325956344604,
        0.8060047626495361
      ],
      "min": [
        0.10246902704238892,
        -0.678980827331543,
        0.0520142987370491,
        0.4246101677417755
      ],
      "type": "VEC4"
    },
    {
      "bufferView": 6,
      "byteOffset": 1032,
      "componentType": 5126,
      "count": 51,
      "max": [
        2.125
      ],
      "min": [
        0.0416666679084301
      ],
      "type": "SCALAR"
    },
    {
      "bufferView": 8,
      "byteOffset": 3264,
      "componentType": 5126,
      "count": 51,
      "max": [
        0.15071004629135132,
        0.6890148520469666,
        0.34332218766212463,
        0.6962555646896362
      ],
      "min": [
        0.002484808908775449,
        0.6303585171699524,
        0.2011978179216385,
        0.6797532439231873
      ],
      "type": "VEC4"
    },
    {
      "bufferView": 6,
      "byteOffset": 1236,
      "componentType": 5126,
      "count": 26,
      "max": [
        1.0833333730697632
      ],
      "min": [
        0.0416666679084301
      ],
      "type": "SCALAR"
    },
    {
      "bufferView": 6,
      "byteOffset": 1340,
      "componentType": 5126,
      "count": 52,
      "max": [
        1.0
      ],
      "min": [
        0.0
      ],
      "type": "SCALAR"
    }
  ],
  "animations": [
    {
      "channels": [
        {
          "sampler": 0,
          "target": {
            "node": 8,
            "path": "translation"
          }
        },
        {
          "sampler": 1,
          "target": {
            "node": 9,
            "path": "rotation"
          }
        },
        {
          "sampler": 2,
          "target": {
            "node": 10,
            "path": "rotation"
          }
        },
        {
          "sampler": 3,
          "target": {
            "node": 10,
            "path": "scale"
          }
        },
        {
          "sampler": 4,
          "target": {
            "node": 11,
            "path": "rotation"
          }
        },
        {
          "sampler": 5,
          "target": {
            "node": 12,
            "path": "rotation"
          }
        },
        {
          "sampler": 6,
          "target": {
            "node": 13,
            "path": "rotation"
          }
        },
        {
          "sampler": 7,
          "target": {
            "node": 7,
            "path": "weights"
          }
        }
      ],
      "name": "Animation",
      "samplers": [
        {
          "input": 15,
          "interpolation": "LINEAR",
          "output": 16
        },
        {
          "input": 17,
          "interpolation": "LINEAR",
          "output": 18
        },
        {
          "input": 19,
          "interpolation": "LINEAR",
          "output": 20
        },
        {
          "input": 21,
          "interpolation": "LINEAR",
          "output": 22
        },
        {
          "input": 23,
          "interpolation": "LINEAR",
          "output": 24
        },
        {
          "input": 25,
          "interpolation": "LINEAR",
          "output": 26
        },
        {
          "input": 27,
          "interpolation": "LINEAR",
          "output": 28
        },
        {
          "input": 29,
          "interpolation": "LINEAR",
          "output": 30
        }
      ]
    }
  ],
  "asset": {
    "extras": {
      "author": "kenchoo (https://sketchfab.com/kenchoo)",
      "license": "CC-BY-NC-4.0 (http://creativecommons.org/licenses/by-nc/4.0/)",
      "source": "https://sketchfab.com/3d-models/woodpecker-7b6c1f3b93c0489280dc693044acfc1f",
      "title": "Woodpecker"
    },
    "generator": "Sketchfab-16.64.0",
    "version": "2.0"
  },
  "bufferViews": [
    {
      "buffer": 0,
      "byteLength": 23512,
      "byteStride": 8,
      "name": "shortBufferViews",
      "target": 34962
    },
    {
      "buffer": 0,
      "byteLength": 54696,
      "byteOffset": 23512,
      "name": "floatBufferViews",
      "target": 34963
    },
    {
      "buffer": 0,
      "byteLength": 117560,
      "byteOffset": 78208,
      "byteStride": 8,
      "name": "floatBufferViews",
      "target": 34962
    },
    {
      "buffer": 0,
      "byteLength": 211608,
      "byteOffset": 195768,
      "byteStride": 12,
      "name": "floatBufferViews",
      "target": 34962
    },
    {
      "buffer": 0,
      "byteLength": 47024,
      "byteOffset": 407376,
      "byteStride": 16,
      "name": "floatBufferViews",
      "target": 34962
    },
    {
      "buffer": 0,
      "byteLength": 448,
      "byteOffset": 454400,
      "name": "floatBufferViews"
    },
    {
      "buffer": 0,
      "byteLength": 1548,
      "byteOffset": 454848,
      "name": "floatBufferViews"
    },
    {
      "buffer": 0,
      "byteLength": 648,
      "byteOffset": 456396,
      "byteStride": 12,
      "name": "floatBufferViews"
    },
    {
      "buffer": 0,
      "byteLength": 4080,
      "byteOffset": 457044,
      "byteStride": 16,
      "name": "floatBufferViews"
    }
  ],
  "buffers": [
    {
      "byteLength": 461124,
      "uri": "scene.bin"
    }
  ],
  "extensionsUsed": [
    "KHR_materials_specular"
  ],
  "images": [
    {
      "uri": "textures/Material_baseColor.png"
    },
    {
      "uri": "textures/Material_metallicRoughness.png"
    }
  ],
  "materials": [
    {
      "doubleSided": true,
      "extensions": {
        "KHR_materials_specular": {
          "specularColorFactor": [
            1.0,
            1.0,
            1.0
          ],
          "specularFactor": 0.5043824895466348
        }
      },
      "name": "Material",
      "pbrMetallicRoughness": {
        "baseColorTexture": {
          "index": 0
        },
        "metallicFactor": 0.0,
        "metallicRoughnessTexture": {
          "index": 1,
          "texCoord": 1
        }
      }
    }
  ],
  "meshes": [
    {
      "name": "mesh_0",
      "primitives": [
        {
          "attributes": {
            "JOINTS_0": 13,
            "NORMAL": 1,
            "POSITION": 0,
            "TEXCOORD_0": 2,
            "TEXCOORD_1": 3,
            "TEXCOORD_2": 4,
            "TEXCOORD_3": 5,
            "TEXCOORD_4": 6,
            "WEIGHTS_0": 14
          },
          "indices": 11,
          "material": 0,
          "mode": 4,
          "targets": [
            {
              "NORMAL": 8,
              "POSITION": 7
            },
            {
              "NORMAL": 10,
              "POSITION": 9
            }
          ]
        }
      ],
      "weights": [
        0.0,
        0.0
      ]
    }
  ],
  "nodes": [
    {
      "children": [
        1
      ],
      "matrix": [
        1.0,
        0.0,
        0.0,
        0.0,
        0.0,
        2.220446049250313e-16,
        -1.0,
        0.0,
        0.0,
        1.0,
        2.220446049250313e-16,
        0.0,
        0.0,
        0.0,
        0.0,
        1.0
      ],
      "name": "Sketchfab_model"
    },
    {
      "children": [
        2
      ],
      "name": "root"
    },
    {
      "children": [
        3
      ],
      "matrix": [
        1.0,
        0.0,
        0.0,
        0.0,
        0.0,
        2.220446049250313e-16,
        1.0,
        0.0,
        0.0,
        -1.0,
        2.220446049250313e-16,
        0.0,
        0.0,
        0.0,
        0.0,
        1.0
      ],
      "name": "GLTF_SceneRootNode"
    },
    {
      "children": [
        4
      ],
      "name": "woodpecker_11"
    },
    {
      "children": [
        5,
        7,
        6
      ],
      "name": "GLTF_created_0"
    },
    {
      "children": [
        8
      ],
      "name": "GLTF_created_0_rootJoint"
    },
    {
      "name": "Object_4_10"
    },
    {
      "mesh": 0,
      "name": "Object_7",
      "skin": 0
    },
    {
      "children": [
        9,
        11,
        12
      ],
      "name": "Bone_9",
      "rotation": [
        5.650073262586375e-07,
        -0.7650851011276245,
        -0.6439291834831238,
        8.918900675780606e-07
      ],
      "scale": [
        1.0,
        0.9999995231628418,
        0.9999882578849792
      ],
      "translation": [
        -6.844101108072209e-08,
        0.0,
        -0.21004395186901093
      ]
    },
    {
      "children": [
        10
      ],
      "name": "Wing01.L_5",
      "rotation": [
        0.39833155274391174,
        0.5087172985076904,
        -0.4590003788471222,
        0.6098011136054993
      ],
      "scale": [
        0.9999998807907104,
        0.9999999403953552,
        0.9999998807907104
      ],
      "translation": [
        0.0906284898519516,
        0.271099328994751,
        -0.02688240259885788
      ]
    },
    {
      "name": "Wing02.L_4",
      "rotation": [
        0.15071038901805878,
        -0.689014732837677,
        -0.20119814574718475,
        0.6797531843185425
      ],
      "scale": [
        0.9999998807907104,
        1.0000001192092896,
        1.0000001192092896
      ],
      "translation": [
        -1.979060471057892e-09,
        0.19059471786022186,
        7.806733037796221e-11
      ]
    },
    {
      "name": "Bone.003_6",
      "rotation": [
        -0.3281484544277191,
        -1.1495990293042269e-06,
        -2.6433889388499665e-07,
        0.9446262717247009
      ],
      "scale": [
        1.0,
        1.0,
        0.9999999403953552
      ],
      "translation": [
        2.1316282072803006e-14,
        0.48764416575431824,
        -1.4666046155298318e-13
      ]
    },
    {
      "children": [
        13
      ],
      "name": "Wing01.R_8",
      "rotation": [
        0.3983307182788849,
        -0.5087185502052307,
        0.4590012729167938,
        0.6097999215126038
      ],
      "scale": [
        0.9999999403953552,
        1.0,
        1.0
      ],
      "translation": [
        -0.09062840044498444,
        0.271099328994751,
        -0.026882771402597427
      ]
    },
    {
      "name": "Wing02.R_7",
      "rotation": [
        0.15071001648902893,
        0.6890148520469666,
        0.2011977881193161,
        0.6797532439231873
      ],
      "translation": [
        3.4924596548080444e-10,
        0.19059468805789948,
        3.3494771400910395e-09
      ]
    }
  ],
  "samplers": [
    {
      "magFilter": 9729,
      "minFilter": 9987,
      "wrapS": 10497,
      "wrapT": 10497
    }
  ],
  "scene": 0,
  "scenes": [
    {
      "name": "Sketchfab_Scene",
      "nodes": [
        0
      ]
    }
  ],
  "skins": [
    {
      "inverseBindMatrices": 12,
      "joints": [
        5,
        8,
        9,
        10,
        11,
        12,
        13
      ],
      "skeleton": 5
    }
  ],
  "textures": [
    {
      "sampler": 0,
      "source": 0
    },
    {
      "sampler": 0,
      "source": 1
    }
  ]
}
