{
  "accessors": [
    {
      "bufferView": 2,
      "componentType": 5126,
      "count": 2725,
      "max": [
        5.6143293380737305,
        18.60055923461914,
        9.85647201538086
      ],
      "min": [
        -5.61406135559082,
        -0.002391815185546875,
        -18.531368255615234
      ],
      "type": "VEC3"
    },
    {
      "bufferView": 2,
      "byteOffset": 32700,
      "componentType": 5126,
      "count": 2725,
      "max": [
        0.9999998807907104,
        0.9999890923500061,
        0.9994128942489624
      ],
      "min": [
        -0.9999998807907104,
        -1.0,
        -0.9981702566146851
      ],
      "type": "VEC3"
    },
    {
      "bufferView": 3,
      "componentType": 5126,
      "count": 2725,
      "max": [
        0.9999970197677612,
        0.9999592304229736,
        0.9986687898635864,
        1.0
      ],
      "min": [
        -0.9999992847442627,
        -0.9999957084655762,
        -0.9999152421951294,
        -1.0
      ],
      "type": "VEC4"
    },
    {
      "bufferView": 1,
      "componentType": 5126,
      "count": 2725,
      "max": [
        0.9980812072753906,
        0.997512936592102
      ],
      "min": [
        0.003450632095336914,
        0.0022658109664916992
      ],
      "type": "VEC2"
    },
    {
      "bufferView": 1,
      "byteOffset": 21800,
      "componentType": 5126,
      "count": 2725,
      "max": [
        0.9980812072753906,
        0.997512936592102
      ],
      "min": [
        0.003450632095336914,
        0.0022658109664916992
      ],
      "type": "VEC2"
    },
    {
      "bufferView": 0,
      "componentType": 5125,
      "count": 13332,
      "type": "SCALAR"
    }
  ],
  "asset": {
    "extras": {
      "author": "hendrikReyneke (https://sketchfab.com/hendrikReyneke)",
      "license": "CC-BY-4.0 (http://creativecommons.org/licenses/by/4.0/)",
      "source": "https://sketchfab.com/3d-models/blue-jay-6233ad12a9be46e496e27233b9b3b7de",
      "title": "Blue- Jay"
    },
    "generator": "Sketchfab-12.68.0",
    "version": "2.0"
  },
  "bufferViews": [
    {
      "buffer": 0,
      "byteLength": 53328,
      "name": "floatBufferViews",
      "target": 34963
    },
    {
      "buffer": 0,
      "byteLength": 43600,
      "byteOffset": 53328,
      "byteStride": 8,
      "name": "floatBufferViews",
      "target": 34962
    },
    {
      "buffer": 0,
      "byteLength": 65400,
      "byteOffset": 96928,
      "byteStride": 12,
      "name": "floatBufferViews",
      "target": 34962
    },
    {
      "buffer": 0,
      "byteLength": 43600,
      "byteOffset": 162328,
      "byteStride": 16,
      "name": "floatBufferViews",
      "target": 34962
    }
  ],
  "buffers": [
    {
      "byteLength": 205928,
      "uri": "scene.bin"
    }
  ],
  "images": [
    {
      "uri": "textures/Material_28_baseColor.png"
    },
    {
      "uri": "textures/Material_28_normal.png"
    }
  ],
  "materials": [
    {
      "alphaMode": "MASK",
      "doubleSided": true,
      "name": "Material_28",
      "normalTexture": {
        "index": 1
      },
      "pbrMetallicRoughness": {
        "baseColorTexture": {
          "index": 0
        },
        "roughnessFactor": 0.858579
      }
    }
  ],
  "meshes": [
    {
      "name": "Object_0",
      "primitives": [
        {
          "attributes": {
            "NORMAL": 1,
            "POSITION": 0,
            "TANGENT": 2,
            "TEXCOORD_0": 3,
            "TEXCOORD_1": 4
          },
          "indices": 5,
          "material": 0,
          "mode": 4
        }
      ]
    }
  ],
  "nodes": [
    {
      "children": [
        1
      ],
      "matrix": [
        1.0,
        0.0,
        0.0,
        0.0,
        0.0,
        2.220446049250313e-16,
        -1.0,
        0.0,
        0.0,
        1.0,
        2.220446049250313e-16,
        0.0,
        0.0,
        0.0,
        0.0,
        1.0
      ],
      "name": "Sketchfab_model"
    },
    {
      "children": [
        2
      ],
      "name": "root"
    },
    {
      "children": [
        3
      ],
      "matrix": [
        1.0,
        0.0,
        0.0,
        0.0,
        0.0,
        2.220446049250313e-16,
        1.0,
        0.0,
        0.0,
        -1.0,
        2.220446049250313e-16,
        0.0,
        0.0,
        0.0,
        0.0,
        1.0
      ],
      "name": "GLTF_SceneRootNode"
    },
    {
      "children": [
        4
      ],
      "matrix": [
        0.009999989531934261,
        0.0,
        0.0,
        0.0,
        0.0,
        0.009999990463256836,
        0.0,
        0.0,
        0.0,
        0.0,
        0.009999990463256836,
        0.0,
        0.0,
        0.0,
        0.0,
        1.0
      ],
      "name": "bluejay_mesh_0"
    },
    {
      "mesh": 0,
      "name": "Object_4"
    }
  ],
  "samplers": [
    {
      "magFilter": 9729,
      "minFilter": 9987,
      "wrapS": 10497,
      "wrapT": 10497
    }
  ],
  "scene": 0,
  "scenes": [
    {
      "name": "Sketchfab_Scene",
      "nodes": [
        0
      ]
    }
  ],
  "textures": [
    {
      "sampler": 0,
      "source": 0
    },
    {
      "sampler": 0,
      "source": 1
    }
  ]
}
